<svg width="308" height="85" viewBox="0 0 308 85" fill="none" xmlns="http://www.w3.org/2000/svg">
<path fill-rule="evenodd" clip-rule="evenodd" d="M179.953 21.8297C179.613 22.8693 176.493 41.8532 176.493 41.8532C176.493 41.8532 192.862 26.8366 195.524 21.8297C195.524 21.8297 187.996 21.8297 179.953 21.8297ZM225.801 21.829C224.399 27.7602 217.15 64.8942 217.15 66.2288H224.071L235.316 57.5231L231.856 66.2288H253.482L255.213 56.6525C244.366 56.6525 231.856 56.6525 231.856 56.6525C232.082 55.815 232.751 52.5522 233.042 51.2348L233.571 48.8408H243.431H253.291L255.213 38.37C247.675 38.37 235.316 38.37 235.316 38.37C235.5 37.772 236.223 35.1403 236.511 33.8233L237.031 31.429H248.189H259.346L260.283 27.0334C260.799 24.6158 261.22 22.2652 261.22 21.8099C243.561 21.8099 225.801 21.829 225.801 21.829ZM267.323 21.8099C266.781 24.5237 265.593 31.0066 265.593 31.4054H275.109L282.029 21.829C282.029 21.829 271.301 21.8099 267.323 21.8099ZM280.299 31.4054L272.513 66.2288C272.513 66.2288 280.889 66.2288 285.489 66.2288L292.409 31.4054H306.25L307.979 21.829H288.949L280.299 31.4054ZM205.905 21.829C204.423 23.1324 196.27 30.1152 194.659 31.4063L197.351 31.3821C202.732 31.4448 204.127 32.0908 204.127 34.5197C204.127 37.6945 201.036 39.2642 194.782 39.2642H189.283L189.869 36.435C190.427 33.7335 190.154 33.9014 183.854 40.1347L173.898 51.429C173.337 54.5412 171.56 65.346 171.303 66.2288H186.874C201.652 65.9521 204.149 66.4442 207.587 64.8325C212.778 62.3976 215.414 59.3331 215.983 55.0733C216.571 50.6533 215.813 47.5435 213.606 45.3218C211.886 43.5911 211.095 43.5938 211.095 43.5938C213.801 40.8705 218.015 38.0792 218.015 34.018C218.015 30.5348 218.015 28.7943 215.42 25.3119C212.825 21.8297 205.905 21.829 205.905 21.829ZM202.224 49.8856C203.761 51.4335 203.487 53.5898 201.521 55.3799C200.243 56.5445 197.92 57.0739 192.775 57.3733L186.009 57.5231L187.739 48.8173C187.739 48.8173 201.084 48.7388 202.224 49.8856Z" fill="white"/>
<path fill-rule="evenodd" clip-rule="evenodd" d="M97.5406 8.30459L100.107 9.57942L105.24 0.655579L97.5406 8.30459ZM87.2754 12.1291H89.8418L92.4078 10.8543L91.1248 9.57942L87.2754 12.1291ZM79.5763 17.2284C79.5763 17.2284 82.499 18.9372 81.6308 20.6784C81.6308 20.6784 80.5748 20.2693 75.3258 20.3415C64.333 20.493 55.2302 25.8655 50.5604 34.9596C48.6697 38.6414 48.26 40.6349 48.2137 46.3842C48.1834 50.2148 50.3769 55.5018 50.3769 55.5018L52.9769 52.8901C54.854 51.1898 59.4386 47.4993 60.7949 46.7961C59.9267 39.8314 65.1357 31.1253 76.4219 31.1253C76.4219 31.1253 81.5441 28.0114 82.499 27.643L79.8945 31.1253C79.8945 31.1253 80.1626 31.5277 82.499 33.7371C85.1086 36.2045 85.1155 37.8499 85.1035 41.5726C85.087 46.4 82.4924 51.3154 78.86 54.016C75.687 56.3742 69.5411 56.9498 66.1726 55.2024L63.4979 53.8156L58.1904 64.2076L62.2539 66.5053C71.7775 69.2817 84.2668 66.5184 90.2692 60.3075C93.0683 57.413 94.6533 54.6313 94.6533 54.6313L94.9742 59.2979L97.1899 60.3075L100.107 55.4735C100.107 55.4735 98.2406 51.6166 97.1899 50.1128C97.1899 50.1128 98.9941 40.702 98.1259 35.4785C98.4961 35.2492 101.007 32.723 101.007 32.723L100.73 30.2548L102.673 24.8774C98.8107 27.3203 94.6533 27.643 94.6533 27.643C94.6533 27.643 90.3125 24.1607 86.8398 22.4196C86.6888 20.7437 85.9921 17.2284 85.9921 17.2284L84.709 18.5033L82.1427 15.9536L79.5763 17.2284ZM94.9742 15.9536L91.1248 18.5033L94.9742 22.3278H96.2575L97.5406 19.7781L94.9742 15.9536ZM8.70069 21.549C8.46108 22.3865 7.7431 27.0555 6.96437 31.1253C6.1856 35.1955 5.4902 39.7443 5.22804 40.702L13.0415 31.1253L19.9868 21.549C14.9697 21.549 8.70069 21.549 8.70069 21.549ZM14.8234 36.4195C9.66417 42.5842 8.29357 43.6168 3.48742 48.5372C3.48742 48.5372 1.5323 59.0531 0.0199585 65.9491H13.0415L14.7778 54.6313C14.7778 54.6313 18.573 54.7124 24.0077 54.5209C34.7998 54.1395 39.9545 50.2784 43.078 46.3842C45.5438 43.3096 46.0316 39.8314 46.0316 36.3491C46.0316 29.3842 42.559 21.549 24.3276 21.549C24.3276 21.549 19.9825 30.2548 14.8234 36.4195ZM105.071 21.5497C106.492 33.0416 110.278 65.3514 110.28 65.9497H124.171L130.732 53.8024L138.061 39.832C138.375 42.0963 140.089 61.0412 140.666 65.9497H154.557C160.993 53.6673 177.838 21.9563 177.997 21.5497C177.997 21.5497 169.651 21.5497 165.843 21.5497L151.084 49.4084C150.261 42.226 147.638 22.1695 147.611 21.5497H135.457L128.171 34.3762C124.139 41.9686 121.051 49.1107 120.698 48.5378C120.099 41.3223 118.094 31.9968 118.094 31.9968C117.078 32.7323 114.219 34.7356 112.885 35.4791L109.412 38.0909C110.365 36.2722 116.25 22.9862 117.226 21.5497C117.226 21.5497 111.247 21.5497 105.071 21.5497ZM31.2728 32.8665C32.9164 34.2011 33.119 35.7118 32.6174 38.3948C31.854 42.4745 28.7183 44.2079 22.0977 44.2079C17.8698 44.2079 17.3823 44.1843 17.3823 44.1843C17.6176 43.3468 18.3307 39.7897 18.6407 38.1138C19.7832 31.9387 19.9911 31.1253 19.9911 31.1253C23.1703 31.1253 28.6685 31.1253 31.2728 32.8665ZM91.1806 64.2076C90.6067 64.9008 84.2353 68.5608 84.2353 68.5608L78.9006 70.4714V73.7858L83.4257 75.8708L87.708 74.6549L88.0085 71.4648L91.1806 64.2076Z" fill="#FFDC26"/>
</svg>
