<svg width="111" height="24" viewBox="0 0 111 24" fill="none" xmlns="http://www.w3.org/2000/svg">
<path d="M42.8363 15.6136V11.3694C42.8363 9.7679 41.8054 8.68978 40.1466 8.67569C39.1842 8.61406 38.2643 9.07576 37.7451 9.88102C37.2719 9.09959 36.4054 8.63711 35.4864 8.67569C34.6872 8.6375 33.9272 9.02045 33.4877 9.68297V8.83411H32V15.6136H33.502V11.859C33.502 10.6818 34.1587 10.0593 35.1753 10.0593C36.1917 10.0593 36.6629 10.6959 36.6629 11.8447V15.6136H38.1563V11.859C38.1563 10.6818 38.8416 10.0593 39.8296 10.0593C40.8176 10.0593 41.3314 10.6959 41.3314 11.8447V15.6136H42.8363ZM65.0601 8.83977H62.6302V6.78557H61.1281V8.83977H59.7404V10.1867H61.1281V13.2737C61.1281 14.8468 61.7421 15.7835 63.5011 15.7835C64.1579 15.7856 64.8022 15.6041 65.3599 15.2601L64.9316 13.998C64.5325 14.2335 64.0796 14.365 63.6153 14.38C62.8728 14.38 62.6273 13.9272 62.6273 13.2483V10.1867H65.0573L65.0601 8.83977ZM77.7467 8.67003C77.0078 8.64869 76.3163 9.0298 75.9449 9.66321V8.83977H74.4715V15.6136H75.9592V11.8164C75.9592 10.6847 76.4446 10.0734 77.4183 10.0734C77.7369 10.0689 78.0532 10.1266 78.3492 10.2433L78.8061 8.85399C78.4661 8.7335 78.1079 8.67121 77.7467 8.67003ZM58.5668 9.37745C57.7246 8.88152 56.7562 8.63605 55.7771 8.67003C54.0468 8.67003 52.9217 9.49347 52.9217 10.8375C52.9217 11.9438 53.7497 12.6229 55.2803 12.835L55.9799 12.9341C56.7936 13.0473 57.1819 13.2595 57.1819 13.6415C57.1819 14.1649 56.6394 14.4649 55.6229 14.4649C54.8028 14.4907 53.9979 14.2415 53.3386 13.7575L52.6619 14.9034C53.5281 15.5037 54.5663 15.8122 55.6229 15.7835C57.596 15.7835 58.741 14.861 58.741 13.5735C58.741 12.3824 57.8386 11.7598 56.3539 11.5477L55.6543 11.4486C55.0119 11.3637 54.495 11.2363 54.495 10.7837C54.495 10.2885 54.9804 9.99138 55.797 9.99138C56.5453 10.0024 57.2784 10.2019 57.9273 10.5715L58.5668 9.37745ZM98.4056 8.67003C97.6668 8.64869 96.9754 9.0298 96.6039 9.66321V8.83977H95.1305V15.6136H96.6182V11.8164C96.6182 10.6847 97.1036 10.0734 98.0773 10.0734C98.3958 10.0689 98.7122 10.1266 99.0081 10.2433L99.4651 8.85399C99.1251 8.7335 98.7668 8.67121 98.4056 8.67003ZM79.2487 12.2268C79.2487 14.281 80.6935 15.7835 82.895 15.7835C83.7878 15.8272 84.6646 15.5386 85.3535 14.9742L84.6397 13.7829C84.1254 14.171 83.4986 14.3845 82.8522 14.3913C81.6644 14.3913 80.7935 13.5255 80.7935 12.2239C80.7935 10.9223 81.6672 10.0707 82.8522 10.0566C83.4986 10.0634 84.1254 10.2767 84.6397 10.6648L85.3535 9.47358C84.6646 8.9093 83.7878 8.62064 82.895 8.66436C80.6935 8.66436 79.2487 10.1669 79.2487 12.2211V12.2268ZM93.1774 12.2268V8.83134H91.6897V9.65465C91.1751 8.99661 90.3705 8.62644 89.531 8.6616C87.6151 8.6616 86.1045 10.1499 86.1045 12.2182C86.1045 14.2866 87.6065 15.7749 89.531 15.7749C90.3705 15.8101 91.1751 15.4399 91.6897 14.7818V15.6023H93.1774V12.2268ZM87.6436 12.2268C87.6436 11.0355 88.4289 10.0593 89.7166 10.0593C90.9473 10.0593 91.7753 10.9959 91.7753 12.2268C91.7753 13.4576 90.9473 14.3942 89.7166 14.3942C88.4289 14.3942 87.6436 13.4151 87.6436 12.2268ZM69.6944 8.67003C67.6957 8.67003 66.2907 10.116 66.2907 12.2268C66.2907 14.38 67.7499 15.7835 69.7943 15.7835C70.8153 15.8189 71.8134 15.4805 72.5984 14.8327L71.8702 13.7405C71.3024 14.1908 70.5987 14.4398 69.8714 14.4479C68.912 14.4479 68.0411 14.0093 67.8269 12.7899H72.9038C72.9182 12.6059 72.9325 12.4219 72.9325 12.2239C72.9325 10.1131 71.6018 8.66726 69.6858 8.66726L69.6944 8.67003ZM69.6659 9.98861C70.6253 9.98861 71.2393 10.5828 71.3963 11.6326H67.8527C68.0098 10.6535 68.6093 9.98861 69.6686 9.98861H69.6659ZM106.972 12.2268V6.1178H105.484V9.66032C104.97 9.00227 104.165 8.6321 103.326 8.66726C101.41 8.66726 99.8991 10.1556 99.8991 12.2239C99.8991 14.2923 101.401 15.7806 103.326 15.7806C104.165 15.8158 104.97 15.4456 105.484 14.7874V15.608H106.972V12.2268ZM108.711 14.9884C108.77 14.9881 108.828 14.9997 108.882 15.0224C108.934 15.0443 108.982 15.0761 109.022 15.1157C109.062 15.1546 109.094 15.2007 109.116 15.2515C109.163 15.358 109.163 15.4788 109.116 15.5854C109.094 15.6361 109.062 15.6822 109.022 15.7212C108.982 15.7607 108.934 15.7923 108.882 15.8146C108.828 15.8375 108.77 15.849 108.711 15.8486C108.533 15.8508 108.371 15.747 108.3 15.5854C108.254 15.4788 108.254 15.3582 108.3 15.2515C108.344 15.1476 108.428 15.0653 108.534 15.0224C108.592 14.9985 108.654 14.9869 108.717 14.9884H108.711ZM108.711 15.7523C108.756 15.7531 108.801 15.7444 108.842 15.7269C108.882 15.71 108.917 15.6861 108.948 15.6562C109.08 15.5247 109.08 15.3122 108.948 15.1808C108.918 15.1507 108.882 15.1268 108.842 15.1101C108.801 15.0927 108.756 15.084 108.711 15.0845C108.665 15.084 108.619 15.0927 108.577 15.1101C108.404 15.183 108.324 15.3809 108.398 15.5519C108.414 15.5907 108.438 15.6261 108.468 15.6562C108.499 15.6865 108.536 15.7104 108.577 15.7269C108.621 15.7452 108.669 15.7537 108.717 15.7523H108.711ZM108.737 15.2148C108.779 15.2117 108.822 15.2237 108.857 15.2487C108.885 15.2712 108.901 15.3059 108.899 15.3421C108.9 15.373 108.888 15.4029 108.865 15.4241C108.839 15.4472 108.806 15.4611 108.771 15.4638L108.902 15.6136H108.799L108.677 15.4638H108.637V15.6136H108.551V15.2175L108.737 15.2148ZM108.637 15.2882V15.3958H108.737C108.754 15.401 108.773 15.401 108.791 15.3958C108.804 15.387 108.812 15.372 108.811 15.3562C108.812 15.3404 108.804 15.3254 108.791 15.3165C108.773 15.3114 108.754 15.3114 108.737 15.3165L108.637 15.2882ZM101.444 12.2268C101.444 11.0355 102.229 10.0593 103.517 10.0593C104.748 10.0593 105.576 10.9959 105.576 12.2268C105.576 13.4576 104.748 14.3942 103.517 14.3942C102.229 14.3942 101.444 13.4151 101.444 12.2268ZM51.2169 12.2268V8.83134H49.7292V9.65465C49.2146 9.00227 48.4142 8.63566 47.5792 8.67003C45.6632 8.67003 44.1527 10.1584 44.1527 12.2268C44.1527 14.2952 45.6546 15.7835 47.5792 15.7835C48.4186 15.8185 49.2232 15.4484 49.7378 14.7903V15.6109H51.2255L51.2169 12.2268ZM45.6832 12.2268C45.6832 11.0355 46.4684 10.0593 47.7562 10.0593C48.9869 10.0593 49.815 10.9959 49.815 12.2268C49.815 13.4576 48.9869 14.3942 47.7562 14.3942C46.4684 14.3942 45.6832 13.418 45.6832 12.2268Z" fill="white"/>
<path d="M13.6962 5.96354C13.7956 5.8776 13.8967 5.79427 14.0004 5.71354C14.1033 5.79427 14.2053 5.8776 14.3047 5.96354C15.9969 7.43056 17.0692 9.58941 17.0692 12C17.0692 14.4097 15.9969 16.5686 14.3047 18.0356C14.2053 18.1215 14.1033 18.2049 14.0004 18.2865C13.8967 18.2049 13.7956 18.1215 13.6962 18.0356C12.0031 16.5686 10.9317 14.4097 10.9317 12C10.9317 9.58941 12.0031 7.43056 13.6962 5.96354Z" fill="white"/>
<path d="M14.5183 5.33681C15.7911 4.49219 17.3212 4 18.9654 4C23.4029 4 27 7.5816 27 12C27 16.4175 23.4029 20 18.9654 20C17.3212 20 15.7911 19.5069 14.5183 18.6623C14.5828 18.6094 14.6491 18.5564 14.7127 18.5026C16.6054 16.8628 17.6908 14.4922 17.6908 12C17.6908 9.50694 16.6054 7.13628 14.7118 5.49653C14.6491 5.44184 14.5828 5.38976 14.5183 5.33681Z" fill="white"/>
<path d="M13.4826 18.6623C13.4172 18.6094 13.3509 18.5564 13.2882 18.5026C11.3955 16.8628 10.3101 14.4931 10.3101 12C10.3101 9.50694 11.3955 7.13628 13.2882 5.49653C13.3509 5.44184 13.4172 5.38976 13.4826 5.33681C12.2089 4.49219 10.6797 4 9.0346 4C4.59709 4 1 7.5816 1 12C1 16.4175 4.59709 20 9.0346 20C10.6797 20 12.2089 19.5069 13.4826 18.6623Z" fill="white"/>
<path d="M26.7489 16.6467V16.9566H26.6914V16.7222L26.6033 16.9245H26.544L26.456 16.7231V16.9566H26.3985V16.6467H26.4795L26.5737 16.8602L26.667 16.6467H26.7489Z" fill="white"/>
<path d="M26.2328 16.6997V16.9566H26.1761V16.6997H26.0715V16.6467H26.3374V16.6997H26.2328Z" fill="white"/>
</svg>
