<svg width="53" height="24" viewBox="0 0 53 24" fill="none" xmlns="http://www.w3.org/2000/svg">
<path d="M52.1668 19.6016C50.8642 19.6016 49.5616 19.6016 48.2396 19.6016C48.096 18.9053 47.9418 18.2242 47.8202 17.537C47.7696 17.2519 47.6792 17.1414 47.3636 17.1455C45.789 17.1659 44.2138 17.1609 42.6389 17.1483C42.4005 17.1463 42.3058 17.2258 42.2332 17.4448C42.0163 18.0995 41.779 18.7475 41.5362 19.393C41.5033 19.4806 41.3941 19.6009 41.3193 19.6015C39.8999 19.6139 38.4802 19.6107 37.0197 19.6107C37.2858 18.9642 37.5379 18.3471 37.7937 17.7316C39.624 13.3278 41.455 8.9244 43.2859 4.52094C43.6825 3.56719 44.2769 3.16782 45.2995 3.16776C46.4392 3.16769 47.5787 3.16774 48.7474 3.16774C48.8615 3.70462 48.9761 4.23364 49.0859 4.76373C49.9865 9.11559 50.885 13.4679 51.788 17.8192C51.9035 18.3766 52.04 18.9297 52.1668 19.4847C52.1668 19.5237 52.1668 19.5627 52.1668 19.6016ZM47.0269 13.7617C46.6083 11.7382 46.1954 9.74178 45.7825 7.74544C45.7657 7.7421 45.7487 7.73875 45.732 7.73541C45.0125 9.73682 44.293 11.7382 43.5655 13.7617C44.7405 13.7617 45.8654 13.7617 47.0269 13.7617Z" fill="white"/>
<path d="M35.06 2.87543C35.5782 2.97247 36.1004 3.05225 36.6136 3.17163C37.0819 3.28056 37.5404 3.43238 38.0381 3.57533C37.7872 4.75827 37.5423 5.91285 37.3027 7.04253C36.6462 6.84834 36.0186 6.62476 35.3736 6.48117C34.4911 6.28478 33.5871 6.20993 32.7044 6.45798C32.3456 6.55881 31.9823 6.75243 31.6999 6.99651C31.2153 7.41516 31.2088 8.01784 31.6717 8.45738C31.9907 8.7605 32.369 9.00927 32.747 9.23853C33.6062 9.75959 34.5085 10.2127 35.3436 10.7693C36.327 11.4249 37.0443 12.326 37.1949 13.5447C37.4612 15.6999 36.671 17.3975 34.8757 18.5986C33.7468 19.3537 32.4693 19.691 31.1381 19.816C29.2795 19.9904 27.4576 19.7804 25.6817 19.1921C25.5627 19.1527 25.4468 19.1035 25.3306 19.0556C25.296 19.0412 25.2659 19.0159 25.2129 18.9826C25.4638 17.7978 25.7149 16.6113 25.9732 15.3916C26.2759 15.5249 26.5601 15.6585 26.8505 15.7764C28.238 16.3403 29.6709 16.5981 31.1559 16.3175C31.5422 16.2445 31.9362 16.0725 32.2637 15.8512C32.9744 15.3708 33.0426 14.468 32.3955 13.9038C31.9702 13.5328 31.459 13.2589 30.9744 12.9612C30.2175 12.4963 29.4134 12.1 28.6972 11.5797C27.7791 10.9127 27.1141 10.0233 26.9882 8.84127C26.7994 7.07139 27.4507 5.63429 28.7979 4.51764C29.97 3.54605 31.3617 3.11487 32.8444 2.93379C32.9268 2.92372 33.007 2.8953 33.0882 2.87543C33.7454 2.87543 34.4027 2.87543 35.06 2.87543Z" fill="white"/>
<path d="M19.7872 3.18106C19.5666 3.71641 19.3577 4.22685 19.1459 4.73609C17.1248 9.5984 15.1012 14.4596 13.0881 19.3254C12.9923 19.5572 12.8749 19.6182 12.6419 19.6161C11.3662 19.6056 10.0902 19.6012 8.81473 19.619C8.5443 19.6228 8.45623 19.5272 8.39397 19.2825C7.31246 15.0325 6.21287 10.7871 5.14372 6.53393C4.94748 5.75363 4.5549 5.22072 3.81833 4.89366C2.63778 4.3694 1.41228 4.00113 0.16226 3.70178C0.10699 3.68855 0.0519361 3.67406 0 3.66098C0.00623664 3.16771 0.00623693 3.16769 0.471404 3.16768C2.7039 3.16768 4.93651 3.16717 7.16902 3.1679C8.22795 3.16825 8.99226 3.78855 9.19248 4.84551C9.75926 7.83768 10.3139 10.8321 10.8737 13.8256C10.8982 13.9565 10.9262 14.0868 10.9633 14.2711C11.0211 14.1614 11.0615 14.0997 11.0879 14.0325C12.4746 10.4957 13.8616 6.95913 15.241 3.41955C15.3164 3.22634 15.4092 3.16079 15.6161 3.16244C16.9111 3.1728 18.2062 3.16746 19.5013 3.16818C19.585 3.16822 19.6686 3.17551 19.7872 3.18106Z" fill="white"/>
<path d="M18.0975 19.6114C19.2639 14.1148 20.422 8.65689 21.583 3.18555C22.9951 3.18555 24.3907 3.18555 25.813 3.18555C25.637 4.01887 25.4648 4.83627 25.2915 5.65343C24.3332 10.1727 23.3713 14.6911 22.4235 19.2126C22.3576 19.5267 22.2473 19.6266 21.9238 19.6202C20.7647 19.5977 19.6047 19.6114 18.445 19.6114C18.341 19.6114 18.237 19.6114 18.0975 19.6114Z" fill="white"/>
</svg>
