<svg width="113" height="24" viewBox="0 0 113 24" fill="none" xmlns="http://www.w3.org/2000/svg">
<path d="M20.6623 7H17.1876C16.9089 7 16.6087 7.06588 16.3084 7.19849C16.0081 7.33095 15.7721 7.48562 15.5791 7.68425C15.1931 8.1481 15.0215 8.81058 15 9.69388V21H17.445V17.1799H20.7267C21.3486 17.1799 21.8633 16.9369 22.3138 16.4731C22.764 16.0313 22.9786 15.5014 23 14.883V9.60538C22.9786 7.88331 22.2064 7.02191 20.6623 7ZM20.4048 14.3752C20.2762 14.5299 20.1261 14.596 19.9544 14.596H18.217C17.7025 14.596 17.4666 14.3311 17.445 13.8452V10.3342C17.445 9.8706 17.681 9.60538 18.1314 9.58333H20.0188C20.3834 9.60538 20.555 9.80444 20.5764 10.2017L20.5978 13.9557C20.5978 14.1322 20.5335 14.2646 20.4048 14.3752Z" fill="white"/>
<path d="M30.5484 7H25V9.53767H29.9248C30.3764 9.51614 30.613 9.7114 30.5914 10.0801H30.613V10.3188H27.3654C25.7957 10.3619 25.0216 11.1428 25 12.7049V14.7437C25.0216 16.2405 25.8386 16.9781 27.4731 17H30.8065C31.4517 17 31.9894 16.7829 32.3978 16.3274C32.7849 15.8716 32.9786 15.3293 33 14.657V9.36421C32.9786 7.80228 32.1613 7.02152 30.5484 7ZM30.613 13.9629C30.5914 14.2883 30.3764 14.4618 29.9462 14.4618H28.0752C27.8818 14.4618 27.7313 14.4186 27.6236 14.3101C27.4947 14.2232 27.4301 14.1149 27.4301 13.9629L27.4516 13.312C27.4516 13.0518 27.4947 12.8565 27.5807 12.7699C27.6882 12.7049 27.8603 12.6615 28.0968 12.6615H29.9462C30.3979 12.6615 30.613 12.8565 30.613 13.2469V13.9629Z" fill="white"/>
<path d="M40.5765 13.9557C40.5765 14.1101 40.512 14.2646 40.3619 14.3752C40.2116 14.5299 40.0403 14.596 39.8256 14.596H38.1097C37.681 14.596 37.4665 14.3311 37.4665 13.779V7H35.0214V14.5741C35.0214 14.9936 35.0857 15.3469 35.193 15.6117C35.2786 15.9211 35.4717 16.2081 35.7077 16.4731C35.9651 16.7159 36.2224 16.9146 36.4798 17.0031C36.7157 17.1136 37.0374 17.1576 37.445 17.1576H40.555V17.776C40.555 17.9305 40.4906 18.0851 40.3619 18.1956C40.2333 18.328 40.0616 18.3942 39.8685 18.4161H35V21H40.7051C41.413 20.9778 41.9704 20.7349 42.378 20.227C42.7855 19.7193 42.9785 19.0567 43 18.2176V7H40.5765V13.9557Z" fill="white"/>
<path d="M45.0201 9.25561V11.1428C45.0201 11.707 45.2419 12.2059 45.6859 12.5964C46.1297 13.0304 46.6339 13.2469 47.2391 13.2688H49.2564C49.3976 13.2688 49.4986 13.3555 49.5993 13.5508C49.6398 13.6375 49.6599 13.7027 49.6599 13.7675V13.9845C49.6398 14.2883 49.4581 14.4402 49.0749 14.4618H45V17H49.781C50.1642 17 50.4668 16.9564 50.6887 16.8695C50.9107 16.7829 51.1325 16.6092 51.3342 16.3489C51.7579 15.8282 51.9798 15.3078 52 14.7874V12.9433C51.9798 12.3361 51.778 11.8155 51.3948 11.3814C51.0115 10.9478 50.5676 10.7307 50.0229 10.7092H48.0058C47.5215 10.7092 47.2796 10.5574 47.2796 10.2319V9.99318C47.2796 9.68974 47.5215 9.53767 47.9855 9.53767H52V7H47.2593C45.7867 7.04305 45.0403 7.78048 45.0201 9.25561Z" fill="white"/>
<path d="M59.555 7H54.0214V9.53767H58.933C59.3834 9.51614 59.5979 9.7114 59.5979 10.0801V10.3188H56.3593C54.7936 10.3619 54 11.1428 54 12.7049V14.7437C54.0214 16.2405 54.8365 16.9781 56.4664 17H59.8124C60.4557 17 60.9921 16.7829 61.3995 16.3274C61.7856 15.8716 61.9786 15.3293 62 14.657V9.36421C61.9786 7.80228 61.1635 7.02152 59.555 7ZM59.5764 13.9629C59.555 14.2883 59.3404 14.4618 58.9115 14.4618H57.0456C56.874 14.4618 56.7239 14.4186 56.6166 14.3101C56.4879 14.2232 56.4235 14.1149 56.4235 13.9629H56.445V13.312C56.445 13.0518 56.4879 12.8565 56.5736 12.7699C56.6595 12.7049 56.831 12.6615 57.067 12.6615H58.9115C59.3404 12.6615 59.5764 12.8565 59.5764 13.2469V13.9629Z" fill="white"/>
<path d="M64.7385 4.61594C64.2666 5.00606 64.041 5.54023 64.0204 6.17669L64 17H66.3385V9.93501H67.9796V7.53246H66.3385V7.01889C66.3589 6.56699 66.6052 6.34111 67.0975 6.3208H68V4H66.5231C65.7846 4.02046 65.1898 4.22595 64.7385 4.61594Z" fill="white"/>
<path d="M78 11.4251V9.42921C77.9786 7.82422 77.2044 7.02152 75.6775 7H72.387C70.8172 7.04305 70.0214 7.80228 70 9.34255L70.0214 14.3968C70.0214 14.8958 70.0645 15.2863 70.1719 15.5681C70.2581 15.8501 70.4517 16.1322 70.7096 16.3927C70.9463 16.6092 71.2043 16.7829 71.5053 16.8695C71.785 16.9564 72.1506 17 72.6452 17H77.9786V14.4618H72.9678C72.8173 14.4618 72.7312 14.3968 72.6452 14.2448C72.5376 14.1362 72.4946 13.9629 72.4946 13.7675V13.6157L78 11.4251ZM72.4302 11.2081V10.1887C72.4302 9.99318 72.516 9.84153 72.6881 9.73293C72.8386 9.6028 73.0107 9.53767 73.2259 9.53767H74.9249C75.0968 9.53767 75.2474 9.55933 75.3549 9.64627C75.4624 9.73293 75.5054 9.84153 75.5054 9.97165V10.0366L72.4302 11.2081Z" fill="white"/>
<path d="M82.2431 16.3318C81.9605 16.2673 81.6545 16.1378 81.3719 15.9436C81.1128 15.7283 80.9244 15.448 80.8068 15.1461C80.6889 14.8233 80.6417 14.4997 80.6417 14.1766V9.4782C80.6417 8.78859 80.8537 8.27146 81.2776 7.99109C81.678 7.71099 82.2431 7.58171 82.9496 7.58171H86.9529V7H82.8555C82.4079 7 82.0312 7.02152 81.7017 7.10748C81.3483 7.194 81.0185 7.38771 80.6889 7.68961C80.4065 7.9697 80.218 8.24965 80.1239 8.55155C80.0296 8.85316 79.9824 9.17644 80.006 9.56457V14.2627C80.006 14.7154 80.0767 15.103 80.2181 15.4694C80.3593 15.8357 80.5948 16.1594 80.9716 16.4611C81.3247 16.7196 81.678 16.8703 82.0312 16.9136C82.3609 16.9567 82.7377 17 83.138 17H87V16.4179H83.1853C82.8555 16.4179 82.5494 16.3966 82.2431 16.3318Z" fill="white"/>
<path d="M96.9569 14.3059V9.75885C96.9569 9.00425 96.7418 8.33631 96.2904 7.75432C96.1397 7.56046 95.9892 7.40952 95.8171 7.30189C95.6452 7.194 95.4731 7.12928 95.2795 7.08651C94.914 7.0218 94.4839 7 94.0322 7H89V7.58213H94.3118C94.6344 7.58213 94.9356 7.62517 95.2149 7.69002C95.4947 7.77584 95.731 7.96998 95.9248 8.22841C96.2474 8.65959 96.3979 9.13353 96.3979 9.67247V10.3406H91.5377C89.8817 10.3839 89.0216 11.2673 89 12.97V14.4786C89 15.2543 89.2366 15.8794 89.731 16.3319C90.2043 16.7628 90.8279 17 91.5806 17H94.5055C95.2795 17 95.9031 16.7414 96.4194 16.2026C96.6773 15.9227 96.8279 15.6208 96.9139 15.2975C96.9784 15.0173 97 14.694 97 14.3059H96.9569ZM96.3979 14.4571C96.3979 15.7501 95.7743 16.3965 94.5269 16.4184H91.5591C91.0644 16.4184 90.5914 16.2457 90.1613 15.9007C89.9247 15.707 89.7741 15.4912 89.7096 15.2328C89.6451 14.9958 89.6236 14.7157 89.6236 14.4354V12.9483C89.6236 12.3234 89.7956 11.8493 90.1397 11.483C90.4623 11.1381 90.9354 10.9655 91.5161 10.9441H96.4194L96.3979 14.4571Z" fill="white"/>
<path d="M100 9.82314V17H100.523V9.82314C100.503 8.35755 101.103 7.60337 102.323 7.58171H103V7H102.419C100.774 7 99.9809 7.94818 100 9.82314Z" fill="white"/>
<path d="M112.979 4H112.405V7.17551H107.876C105.983 7.15409 105.027 8.10691 105.005 9.99113V14.1828C104.984 14.585 105.027 14.945 105.112 15.2624C105.175 15.5801 105.346 15.8974 105.601 16.2149C105.941 16.5752 106.302 16.8078 106.664 16.8926C107.025 16.956 107.429 16.9986 107.876 16.9986H110.023C111.958 17.0408 112.958 16.1304 113 14.2674L112.979 4ZM112.426 14.2037C112.405 14.9872 112.171 15.5591 111.703 15.8764C111.235 16.2149 110.619 16.3844 109.875 16.3844H107.876C107.557 16.3844 107.259 16.3422 106.983 16.2789C106.706 16.2149 106.472 16.1304 106.26 16.0034C105.813 15.7279 105.601 15.2202 105.601 14.4793V9.99113C105.579 9.65229 105.622 9.35587 105.707 9.10188C105.771 8.84788 105.92 8.6149 106.154 8.36077C106.409 8.0859 106.685 7.91621 106.961 7.85292C107.238 7.78921 107.536 7.74693 107.855 7.74693H112.426V14.2037Z" fill="white"/>
<path d="M1.3752 6.39199C1.71893 4.86291 3.22299 3.70591 5.00643 3.70591C6.78987 3.70591 8.27266 4.86291 8.6378 6.39199C9.19655 6.49015 9.64773 6.68633 9.9916 7C10.013 6.70579 9.9916 6.41182 9.94865 6.15677C9.71223 3.8234 7.58505 2 4.98502 2C2.29896 2 0.128904 3.94102 0.0214072 6.35308C4.64763e-07 6.56872 0 6.78449 0 7C0.236401 6.82352 0.494209 6.68633 0.794912 6.56872C0.988377 6.49015 1.18172 6.4314 1.3752 6.39199Z" fill="white"/>
<path d="M7.76634 7H2.09027C1.82384 7 1.53699 7.06485 1.25002 7.19496C0.96312 7.32507 0.73766 7.47713 0.553342 7.67223C0.204953 8.12784 0.0205578 8.77854 0 9.64629V14.3534C0.0205578 15.2212 0.184538 15.8717 0.553342 16.3275C0.73766 16.5227 0.96312 16.6745 1.25002 16.8045C1.53699 16.935 1.82384 17 2.09027 17H7.76634C9.24179 16.9781 9.97945 16.1323 10 14.4404V9.55936C9.97945 7.86775 9.24179 7.02152 7.76634 7Z" fill="white"/>
</svg>
