<svg width="82" height="24" viewBox="0 0 82 24" fill="none" xmlns="http://www.w3.org/2000/svg">
<path d="M75.8545 6.02791C74.883 5.34461 73.4129 5 71.4851 5H66.4366L64.5601 15.4569H57.9468L58.3707 13.0848H62.3551L62.8287 10.4201L58.8469 10.4271L59.2733 8.06511H63.3762L63.9222 5.00024H55.5875L53.8063 14.9205H50.7501L52.5443 5.00024H48.1869L46.4058 14.9205H43.4258L45.2218 5.00024H40.8689L38.9875 15.4575H32.3273L32.7468 13.0851H36.7491L37.2204 10.4357L33.2243 10.4319L33.6486 8.06511H37.7973L38.3406 5.00024H12.3741L10.8962 13.2873L7.95143 5H3.43225L1 18.5235H5.31564L6.78765 10.0089L9.64535 18.5235H25.1141L26.9945 8.06463H29.415L27.5335 18.5235H68.2367L69.4156 11.9209L71.3265 18.5235H75.6447L73.6664 13.1286L74.1179 13.0283C75.1131 12.8097 75.8921 12.3385 76.4326 11.6326C76.9741 10.9203 77.249 10.0054 77.249 8.90657C77.2493 7.62665 76.7939 6.68555 75.8545 6.02791ZM21.3565 15.4567H14.7483L15.1754 13.0845H19.3203L19.7913 10.4124H15.6864L16.0832 8.06439H22.6798L21.3565 15.4567ZM72.2948 10.9018C71.8612 11.2118 71.2319 11.3651 70.3708 11.3651H69.517L70.1717 7.7354H70.7997C71.5143 7.7354 72.0365 7.85373 72.3962 8.09349C72.6772 8.28128 73.0104 8.65339 73.0104 9.35927C73.0104 10.2096 72.6229 10.6671 72.2948 10.9018Z" fill="white"/>
<path d="M80.6356 17.4689C80.5587 17.3592 80.4784 17.2682 80.3943 17.1972C80.3555 17.1647 80.298 17.1331 80.2241 17.1006C80.4212 17.062 80.5645 16.9881 80.6543 16.8803C80.7441 16.7714 80.7859 16.6422 80.7776 16.4911C80.7731 16.3738 80.7384 16.2698 80.6761 16.1761C80.6135 16.0822 80.5341 16.0187 80.4355 15.9859C80.3371 15.9524 80.1964 15.9405 80.0128 15.95L79.0931 15.9975L79.1991 18.1249L79.4741 18.1105L79.4285 17.1651L79.745 17.1487C79.8157 17.1447 79.8663 17.1455 79.8984 17.1505C79.9402 17.1597 79.9845 17.1756 80.0258 17.2012C80.0679 17.2262 80.1172 17.2704 80.172 17.3356C80.2272 17.4004 80.298 17.4948 80.3844 17.6188L80.6804 18.0468L81.0223 18.0291L80.6356 17.4689ZM80.0046 16.8926L79.4166 16.9239L79.3801 16.2191L80.0345 16.185C80.1879 16.1774 80.3024 16.2029 80.3767 16.2639C80.4505 16.3259 80.4902 16.4062 80.4953 16.5076C80.4998 16.5763 80.4837 16.6401 80.4505 16.701C80.417 16.7621 80.365 16.8075 80.2962 16.8372C80.2274 16.8674 80.1292 16.8868 80.0046 16.8926Z" fill="white"/>
<path d="M79.8019 15.0257C79.2864 15.054 78.8099 15.2854 78.4639 15.6795C78.1172 16.0734 77.9403 16.5833 77.9668 17.1138C78.0227 18.2082 78.9344 19.0523 80.001 18.9975C81.0663 18.9407 81.8906 18.0044 81.8355 16.9106C81.7815 15.8159 80.8699 14.9699 79.8019 15.0257ZM79.9833 18.66C79.0978 18.7058 78.3419 18.0044 78.2957 17.0956C78.2745 16.6552 78.4201 16.2336 78.7078 15.9072C78.9954 15.5801 79.3908 15.3869 79.8203 15.3649C80.7045 15.3177 81.4611 16.0187 81.5065 16.9271C81.5081 16.9551 81.5099 16.985 81.5099 17.0119C81.5099 17.8834 80.8406 18.6141 79.9833 18.66Z" fill="white"/>
</svg>
