<svg width="70" height="24" viewBox="0 0 70 24" fill="none" xmlns="http://www.w3.org/2000/svg">
<path d="M7.83124 11.4575C8.36336 11.5995 9.52403 11.9093 9.7262 11.0994C9.93266 10.2709 8.80458 10.0212 8.25365 9.89918C8.1917 9.88552 8.13699 9.87334 8.09236 9.8623L7.70294 11.4239C7.73972 11.4331 7.78289 11.4446 7.83124 11.4575Z" fill="white"/>
<path d="M7.22945 13.9734C7.86767 14.1421 9.26253 14.5105 9.48429 13.6194C9.71152 12.7082 8.35874 12.4047 7.69864 12.2565C7.62489 12.24 7.55977 12.2254 7.50647 12.2121L7.07697 13.934C7.12072 13.9448 7.17204 13.9583 7.22945 13.9734Z" fill="white"/>
<path fill-rule="evenodd" clip-rule="evenodd" d="M15.0429 13.8535C14.0907 17.6726 10.2226 19.9968 6.40311 19.0445C2.58516 18.0923 0.260929 14.224 1.21352 10.4051C2.16522 6.58563 6.0333 4.26118 9.85171 5.21333C13.671 6.16548 15.995 10.0342 15.0429 13.8535ZM11.2714 11.1133C11.4133 10.1648 10.6911 9.65483 9.7035 9.31467L10.0239 8.02968L9.24169 7.83476L8.9298 9.08586C8.72418 9.03463 8.51298 8.98628 8.30313 8.93839L8.61724 7.67903L7.83552 7.4841L7.51494 8.76863C7.34474 8.72987 7.17766 8.69155 7.01548 8.65123L7.01637 8.64722L5.93769 8.37788L5.72962 9.21329C5.72962 9.21329 6.30995 9.3463 6.29769 9.3545C6.61448 9.43359 6.67173 9.64322 6.66215 9.80949L6.29725 11.2733C6.31908 11.2789 6.34737 11.2869 6.37856 11.2994L6.352 11.2927C6.33388 11.2881 6.31508 11.2835 6.29591 11.2789L5.78441 13.3296C5.74565 13.4257 5.64741 13.5701 5.42597 13.5153C5.43377 13.5267 4.85744 13.3734 4.85744 13.3734L4.46913 14.2688L5.48701 14.5225C5.60061 14.551 5.71285 14.5803 5.82393 14.6092C5.89774 14.6284 5.97178 14.6478 6.04462 14.6664L5.72092 15.9661L6.5022 16.161L6.82277 14.8751C7.0362 14.9331 7.24338 14.9866 7.4461 15.0369L7.12664 16.3168L7.90882 16.5116L8.23251 15.2145C9.56628 15.4669 10.5692 15.3651 10.9914 14.1587C11.3316 13.1874 10.9744 12.6272 10.2727 12.2617C10.7838 12.144 11.1687 11.8078 11.2714 11.1133Z" fill="white"/>
<path fill-rule="evenodd" clip-rule="evenodd" d="M21.8911 9.31329C22.4693 9.31329 22.9687 9.41685 23.3885 9.62033C23.8101 9.82575 24.1581 10.1024 24.4373 10.4504C24.7126 10.8001 24.9175 11.2089 25.0499 11.6775C25.1813 12.1472 25.2472 12.6523 25.2472 13.193C25.2472 14.0235 25.0951 14.8081 24.7879 15.5477C24.4808 16.2885 24.0639 16.931 23.5337 17.479C23.0039 18.0264 22.3783 18.4579 21.657 18.7767C20.9368 19.0957 20.1537 19.2552 19.3129 19.2552C19.2042 19.2552 19.0131 19.252 18.7431 19.2465C18.473 19.2409 18.1628 19.2131 17.8152 19.1661C17.4654 19.1173 17.0957 19.0451 16.7051 18.9484C16.3148 18.8535 15.9441 18.7206 15.595 18.5517L18.7166 5.43545L21.5124 5.00214L20.3947 9.65664C20.6341 9.54875 20.8751 9.46522 21.1157 9.40445C21.3565 9.34447 21.6149 9.31329 21.8911 9.31329ZM19.546 17.0372C19.967 17.0372 20.3638 16.9336 20.7365 16.7303C21.1103 16.5267 21.4328 16.2517 21.7031 15.9093C21.9733 15.5654 22.1873 15.178 22.3432 14.7451C22.4991 14.3123 22.5779 13.8607 22.5779 13.3908C22.5779 12.8136 22.4816 12.3634 22.2892 12.0379C22.097 11.7138 21.7413 11.5507 21.2246 11.5507C21.0552 11.5507 20.8372 11.583 20.5667 11.6407C20.2954 11.7019 20.0525 11.8292 19.8349 12.0205L18.6449 16.9634C18.7166 16.9762 18.7801 16.9882 18.8342 16.9996C18.8872 17.0118 18.9458 17.0206 19.0042 17.0265C19.0658 17.0334 19.1365 17.037 19.2219 17.037L19.546 17.0372Z" fill="white"/>
<path d="M28.1469 19.0041H25.4764L27.7316 9.51453H30.4202L28.1469 19.0041Z" fill="white"/>
<path d="M29.4461 8.35828C29.0734 8.35828 28.7354 8.24734 28.4357 8.02501C28.1333 7.80401 27.9836 7.46383 27.9836 7.00536C27.9836 6.75318 28.0349 6.51658 28.1365 6.29336C28.2396 6.07058 28.3743 5.87878 28.5432 5.71571C28.7119 5.55397 28.9073 5.42475 29.1291 5.3274C29.3524 5.2316 29.5899 5.18372 29.8429 5.18372C30.2153 5.18372 30.5515 5.29465 30.8525 5.51699C31.1524 5.74043 31.3032 6.08061 31.3032 6.53663C31.3032 6.78971 31.2522 7.02718 31.1497 7.24997C31.0479 7.47274 30.9131 7.66456 30.7443 7.82763C30.5769 7.98958 30.3798 8.11835 30.1583 8.21481C29.9349 8.31217 29.6983 8.35828 29.4461 8.35828Z" fill="white"/>
<path d="M35.5575 6.71686L32.7605 7.15016L30.9915 14.6192C30.8474 15.2327 30.7639 15.8153 30.7392 16.3695C30.7153 16.9225 30.8006 17.4133 30.9915 17.839C31.1852 18.2663 31.5086 18.6038 31.9662 18.8509C32.4244 19.0962 33.0676 19.2193 33.8972 19.2193C34.4742 19.2193 34.9735 19.1725 35.3951 19.0754C35.8162 18.9796 36.207 18.8658 36.5679 18.7335L36.3687 16.6759C36.0919 16.7732 35.8187 16.8476 35.5489 16.9011C35.2776 16.9555 34.9968 16.9829 34.7088 16.9829C34.359 16.9829 34.0924 16.9341 33.9061 16.8371C33.719 16.7418 33.59 16.607 33.5183 16.4321C33.4461 16.2578 33.4156 16.0505 33.4287 15.8093C33.4403 15.5691 33.4817 15.3107 33.5548 15.034L34.3479 11.7146H37.3252L37.8661 9.51406H34.8707L35.5575 6.71686Z" fill="white"/>
<path d="M37.7485 15.2147C37.7485 14.3973 37.8808 13.6265 38.1453 12.905C38.4093 12.1828 38.7895 11.5511 39.283 11.0091C39.7746 10.4698 40.3737 10.0424 41.0788 9.7288C41.7805 9.41698 42.5662 9.25964 43.4321 9.25964C43.9742 9.25964 44.4583 9.31091 44.8843 9.41356C45.312 9.51713 45.6989 9.65107 46.049 9.81905L45.1279 11.9132C44.8874 11.8155 44.6377 11.7296 44.3795 11.6516C44.121 11.5721 43.8055 11.5337 43.4324 11.5337C42.5411 11.5337 41.8365 11.841 41.312 12.4534C40.7896 13.0662 40.5265 13.8912 40.5265 14.926C40.5265 15.5393 40.6588 16.0351 40.9244 16.4146C41.1886 16.794 41.6767 16.9827 42.3854 16.9827C42.7351 16.9827 43.0726 16.9462 43.3958 16.8748C43.7215 16.8026 44.0091 16.7117 44.2625 16.6044L44.4618 18.7511C44.1242 18.8821 43.7517 19.0003 43.343 19.104C42.9336 19.2039 42.4461 19.2559 41.881 19.2559C41.1349 19.2559 40.5034 19.1467 39.9867 18.9317C39.4699 18.7134 39.0428 18.4236 38.7064 18.0564C38.3682 17.6884 38.1255 17.2587 37.9752 16.7654C37.8251 16.2727 37.7485 15.755 37.7485 15.2147Z" fill="white"/>
<path fill-rule="evenodd" clip-rule="evenodd" d="M47.9508 18.9665C48.4205 19.1587 48.974 19.2559 49.6114 19.2559C50.4896 19.2559 51.2631 19.0719 51.9301 18.7052C52.598 18.3384 53.154 17.8664 53.5987 17.2896C54.0442 16.7115 54.3818 16.061 54.6091 15.3416C54.8364 14.6187 54.9509 13.8961 54.9509 13.1754C54.9509 12.5986 54.8734 12.0713 54.7164 11.5972C54.5604 11.1214 54.3285 10.7108 54.0233 10.3611C53.7148 10.0131 53.3244 9.74109 52.8506 9.54922C52.3745 9.357 51.8238 9.25964 51.1981 9.25964C50.3452 9.25964 49.5861 9.44361 48.9259 9.80949C48.2651 10.1778 47.704 10.65 47.2491 11.2277C46.7906 11.8045 46.4442 12.4534 46.2107 13.1756C45.9762 13.8963 45.8601 14.619 45.8601 15.3419C45.8601 15.9183 45.9358 16.4442 46.0933 16.9192C46.2508 17.3943 46.4807 17.8067 46.788 18.1546C47.0947 18.5045 47.4826 18.7742 47.9508 18.9665ZM49.9006 11.8759C50.2003 11.6489 50.5502 11.534 50.9461 11.534C51.4511 11.534 51.8005 11.7028 51.9929 12.0386C52.1856 12.3757 52.2823 12.8457 52.2823 13.4463C52.2823 13.8188 52.2309 14.2137 52.1299 14.628C52.0268 15.0431 51.8728 15.4256 51.6683 15.7736C51.4631 16.1225 51.2103 16.4115 50.9113 16.6393C50.61 16.8688 50.2617 16.9829 49.8645 16.9829C49.359 16.9829 49.0112 16.814 48.8177 16.4783C48.6268 16.1408 48.5296 15.6719 48.5296 15.0696C48.5296 14.6965 48.5797 14.3037 48.682 13.8882C48.7851 13.4736 48.9377 13.0923 49.1436 12.7426C49.3472 12.3943 49.5998 12.1056 49.9006 11.8759Z" fill="white"/>
<path d="M57.8607 19.0041H55.1881L57.4433 9.51453H60.1332L57.8607 19.0041Z" fill="white"/>
<path d="M59.1582 8.35828C58.7858 8.35828 58.448 8.24734 58.1486 8.02501C57.8479 7.80401 57.6968 7.46383 57.6968 7.00536C57.6968 6.75318 57.7488 6.51658 57.8505 6.29336C57.9524 6.07058 58.088 5.87878 58.2569 5.71571C58.4247 5.55397 58.6218 5.42475 58.8432 5.3274C59.0652 5.2316 59.3026 5.18372 59.5547 5.18372C59.9281 5.18372 60.2655 5.29465 60.5658 5.51699C60.8662 5.74043 61.018 6.08061 61.018 6.53663C61.018 6.78971 60.9641 7.02718 60.8632 7.24997C60.7622 7.47274 60.6266 7.66456 60.4584 7.82763C60.289 7.98958 60.0944 8.11835 59.8725 8.21481C59.6487 8.31217 59.4118 8.35828 59.1582 8.35828Z" fill="white"/>
<path d="M62.7322 9.73825C62.4864 9.81563 62.2603 9.88688 62.0579 9.94605L59.8735 19.003H62.5626L64.313 11.6605C64.6746 11.5884 65.0288 11.5509 65.377 11.5509C65.7381 11.5509 66.0043 11.6202 66.1806 11.758C66.3541 11.8983 66.466 12.0791 66.5133 12.3001C66.5631 12.5237 66.5656 12.7822 66.523 13.0753C66.4809 13.3712 66.4239 13.6739 66.3512 13.9872L65.1607 19.0033H67.8487L69.0771 13.8794C69.4247 12.4607 69.3319 11.3415 68.7964 10.5237C68.2603 9.70581 67.2896 9.29578 65.8811 9.29578C65.4019 9.29578 64.9707 9.31672 64.5922 9.35962C64.2137 9.40173 63.8694 9.45613 63.5644 9.52316C63.2561 9.58825 62.9792 9.66063 62.7322 9.73825Z" fill="white"/>
</svg>
