<svg width="61" height="24" viewBox="0 0 61 24" fill="none" xmlns="http://www.w3.org/2000/svg">
<path d="M31.4342 12.4628V14.52C31.4342 14.6057 31.3465 14.6915 31.2589 14.6915C31.1714 14.6915 31.0838 14.6343 31.0838 14.52V12.4628C31.0838 11.7772 30.675 11.0629 29.8867 11.0629C28.8649 11.0629 28.427 11.92 28.4853 12.8343V14.52C28.4853 14.6057 28.427 14.6915 28.3102 14.6915C28.2226 14.6915 28.1349 14.6343 28.1349 14.52V7.72001C28.1349 7.63429 28.1934 7.54858 28.3102 7.54858C28.3977 7.54858 28.4853 7.63429 28.4853 7.72001V11.5486C28.7773 11.0629 29.2736 10.72 29.8867 10.72C30.8794 10.72 31.4342 11.5771 31.4342 12.4628Z" fill="white"/>
<path d="M26.1791 10.9771C26.1791 10.8915 26.0916 10.8057 26.004 10.8057V10.7771H25.1281V9.52C25.1281 9.40572 25.0405 9.34857 24.9529 9.34857C24.8361 9.34857 24.7777 9.43429 24.7777 9.52V10.7771H23.9311C23.8143 10.7771 23.7559 10.8629 23.7559 10.9486C23.7559 11.0628 23.8434 11.12 23.9311 11.12H24.7777V14.5486C24.7777 14.6343 24.8654 14.72 24.9529 14.72C25.0697 14.72 25.1281 14.6343 25.1281 14.5486V11.1486H26.004C26.1208 11.1486 26.1791 11.0628 26.1791 10.9771Z" fill="white"/>
<path fill-rule="evenodd" clip-rule="evenodd" d="M21.7994 12.92C21.887 12.92 21.9747 12.8342 21.9747 12.7486C21.9747 11.6914 21.2155 10.7485 20.1061 10.7485C18.9966 10.7485 18.2083 11.72 18.2083 12.7771C18.2083 13.8343 18.9966 14.8057 20.1061 14.8057C20.7484 14.8057 21.4199 14.52 21.7411 13.9486C21.7702 13.92 21.7702 13.8914 21.7702 13.8629C21.7702 13.7485 21.6827 13.6914 21.5951 13.6914C21.5367 13.6914 21.4783 13.72 21.4491 13.7771C21.0987 14.2343 20.6608 14.4629 20.0769 14.4629C19.201 14.4629 18.5879 13.72 18.5003 12.92H21.7994ZM20.0477 11.0342C20.9236 11.0342 21.5659 11.7771 21.6243 12.5771H18.4711C18.5587 11.7771 19.1718 11.0342 20.0477 11.0342Z" fill="white"/>
<path fill-rule="evenodd" clip-rule="evenodd" d="M37.1856 12.92C37.2732 12.92 37.3607 12.8342 37.3607 12.7485C37.3607 11.6915 36.5725 10.7199 35.4922 10.7485C34.3828 10.7485 33.5945 11.72 33.5945 12.7771C33.5945 13.8343 34.3828 14.8057 35.4922 14.8057C36.1345 14.8057 36.806 14.52 37.1272 13.9485C37.1564 13.92 37.1564 13.8914 37.1564 13.8629C37.1564 13.7485 37.0688 13.6914 36.9812 13.6914C36.9228 13.6914 36.8645 13.7199 36.8353 13.7771C36.4849 14.2343 36.047 14.4629 35.4631 14.4629C34.5871 14.4629 33.9741 13.7199 33.8864 12.92H37.1856ZM35.4338 11.0342C36.3097 11.0342 36.952 11.7771 37.0104 12.5771H33.8573C33.9448 11.7771 34.558 11.0342 35.4338 11.0342Z" fill="white"/>
<path d="M41.4481 10.9485C41.4481 11.0628 41.3897 11.12 41.3021 11.12C40.3386 11.2628 39.9007 12.0343 39.9007 12.9486V14.4914C39.9007 14.5771 39.8424 14.6628 39.7256 14.6628C39.638 14.6628 39.5504 14.6057 39.5504 14.4914V10.9771C39.5504 10.8914 39.6088 10.8057 39.7256 10.8057C39.8131 10.8057 39.9007 10.8629 39.9007 10.9771V11.6915C40.1635 11.2343 40.7182 10.8057 41.3021 10.8057C41.3314 10.8057 41.4481 10.8629 41.4481 10.9485Z" fill="white"/>
<path fill-rule="evenodd" clip-rule="evenodd" d="M46.7034 12.92C46.7909 12.92 46.8785 12.8342 46.8785 12.7485C46.8785 11.6915 46.061 10.7199 45.0099 10.7485C43.9005 10.7485 43.1122 11.72 43.1122 12.7771C43.1122 13.8343 43.9005 14.8057 45.0099 14.8057C45.6523 14.8057 46.3238 14.52 46.6449 13.9485C46.6742 13.92 46.6742 13.8914 46.6742 13.8629C46.6742 13.7485 46.5866 13.6914 46.4989 13.6914C46.4406 13.6914 46.3822 13.7199 46.353 13.7771C46.0027 14.2343 45.5647 14.4629 44.9808 14.4629C44.1049 14.4629 43.4918 13.7199 43.4042 12.92H46.7034ZM44.9516 11.0342C45.8274 11.0342 46.4698 11.7771 46.5281 12.5771H43.375C43.4626 11.7771 44.0757 11.0342 44.9516 11.0342Z" fill="white"/>
<path d="M52.2219 10.9771V14.52C52.2219 14.6057 52.1343 14.6915 52.0467 14.6915C51.9592 14.6915 51.8715 14.6343 51.8715 14.52V13.8343C51.6088 14.3772 51.1125 14.7486 50.4993 14.7486C49.5067 14.7486 48.9812 13.92 48.9812 13.0343V10.9486C48.9812 10.8629 49.0395 10.7772 49.1563 10.7772C49.2439 10.7772 49.3316 10.8629 49.3316 10.9486V13.0629C49.3316 13.7486 49.7403 14.4629 50.5285 14.4629C51.638 14.4629 51.9007 13.4343 51.9007 12.3201V11.0057C51.9007 10.92 51.9592 10.8343 52.076 10.8343C52.1343 10.8343 52.2219 10.8915 52.2219 10.9771Z" fill="white"/>
<path d="M60.601 14.52V12.4343C60.601 11.5485 60.0463 10.7199 59.0245 10.7485C58.353 10.7485 57.7983 11.1771 57.5355 11.7771C57.3311 11.1771 56.8055 10.7485 56.134 10.7485C55.5209 10.7485 55.0246 11.0913 54.7326 11.5771V10.9771C54.7326 10.8629 54.6451 10.8056 54.5575 10.8056C54.4407 10.8056 54.3823 10.8914 54.3823 10.9771V14.52C54.3823 14.6342 54.4699 14.6913 54.5575 14.6913C54.6743 14.6913 54.7326 14.6057 54.7326 14.52V12.8628C54.7035 11.8343 55.1122 11.0628 56.134 11.0628C56.9223 11.0628 57.3311 11.7486 57.3311 12.4343V14.52C57.3311 14.6342 57.4187 14.6913 57.5063 14.6913C57.5939 14.6913 57.6815 14.6057 57.6815 14.52V12.9199C57.6815 12.12 58.061 11.0628 59.0537 11.0628C59.842 11.0628 60.2507 11.7486 60.2507 12.4343V14.52C60.2507 14.6342 60.3383 14.6913 60.4259 14.6913C60.5135 14.6913 60.601 14.6057 60.601 14.52Z" fill="white"/>
<path d="M0.865662 12.12L8.01869 16.2915V8.94861L0.865662 12.12Z" fill="white"/>
<path d="M8.01935 8.9486L0.866333 12.12L8.01935 0.491455V8.9486Z" fill="white"/>
<path d="M8.01917 23.3486L0.86615 13.4629L8.01917 17.6058V23.3486Z" fill="white"/>
<path d="M15.2011 12.12L8.01892 16.2915V8.94861L15.2011 12.12Z" fill="white"/>
<path d="M8.01862 8.9486L15.2009 12.12L8.01862 0.491455V8.9486Z" fill="white"/>
<path d="M8.01843 23.3486L15.2007 13.4629L8.01843 17.6058V23.3486Z" fill="white"/>
</svg>
