<svg width="76" height="24" viewBox="0 0 76 24" fill="none" xmlns="http://www.w3.org/2000/svg">
<path fill-rule="evenodd" clip-rule="evenodd" d="M24.0745 7.15481C23.4822 7.15481 23.025 7.37331 22.6995 7.8119C22.3756 8.25049 22.2128 8.86139 22.2128 9.64459C22.2128 11.2742 22.8328 12.0898 24.0745 12.0898C24.594 12.0898 25.2262 11.9618 25.9659 11.704V13.0044C25.358 13.2553 24.6773 13.3798 23.9274 13.3798C22.8485 13.3798 22.0242 13.0572 21.4526 12.4123C20.8811 11.7672 20.5952 10.8409 20.5952 9.6345C20.5952 8.8752 20.7356 8.20961 21.0161 7.638C21.2966 7.0664 21.7003 6.6278 22.2249 6.32249C22.7515 6.01691 23.368 5.86505 24.0745 5.86505C24.7951 5.86505 25.5172 6.03735 26.2445 6.38037L25.7371 7.6396C25.4601 7.51004 25.1812 7.3972 24.9007 7.30003C24.6202 7.20286 24.3448 7.15507 24.0745 7.15507V7.15481ZM30.3166 13.2773L30.017 12.518H29.9771C29.7155 12.8422 29.4471 13.0673 29.1717 13.1921C28.8963 13.3166 28.5376 13.3798 28.0944 13.3798C27.5487 13.3798 27.1211 13.2261 26.8074 12.9192C26.494 12.612 26.338 12.1753 26.338 11.6087C26.338 11.0148 26.5493 10.5762 26.9702 10.2948C27.3911 10.0131 28.0267 9.85619 28.8753 9.82725L29.8591 9.79672V9.55087C29.8591 8.98431 29.5646 8.70103 28.9758 8.70103C28.5239 8.70103 27.9904 8.8359 27.379 9.10538L26.8664 8.07819C27.5193 7.74208 28.2431 7.57482 29.0383 7.57482C29.7987 7.57482 30.3821 7.73862 30.7874 8.06438C31.1943 8.39041 31.3969 8.88688 31.3969 9.55406V13.2773H30.3164H30.3166ZM29.8594 10.6872L29.262 10.7076C28.8117 10.7212 28.4757 10.7997 28.2558 10.9482C28.0359 11.095 27.9268 11.3185 27.9268 11.6188C27.9268 12.0489 28.1779 12.2637 28.6783 12.2637C29.0367 12.2637 29.3226 12.1615 29.5374 11.9584C29.7521 11.7553 29.8594 11.4839 29.8594 11.1478V10.6872V10.6872ZM36.2367 11.6188C36.2367 12.192 36.0357 12.629 35.6307 12.9293C35.2271 13.2295 34.6227 13.3798 33.8175 13.3798C33.4052 13.3798 33.0538 13.3525 32.7628 13.298C32.4718 13.2417 32.1999 13.1616 31.9455 13.054V11.7948C32.2331 11.9281 32.557 12.0388 32.917 12.1293C33.2772 12.2199 33.5941 12.2642 33.8679 12.2642C34.4308 12.2642 34.7113 12.1038 34.7113 11.7831C34.7113 11.6637 34.6733 11.5665 34.5987 11.4914C34.5243 11.4162 34.396 11.331 34.2144 11.2354C34.0306 11.1417 33.7884 11.0307 33.4836 10.9028C33.0471 10.7236 32.7267 10.5563 32.5225 10.4028C32.3179 10.2491 32.1692 10.0734 32.0757 9.87557C31.9822 9.67592 31.9372 9.43193 31.9372 9.14175C31.9372 8.64687 32.1312 8.26297 32.5225 7.99164C32.9121 7.7203 33.4664 7.58543 34.1832 7.58543C34.8673 7.58543 35.5305 7.73225 36.1767 8.02403L35.7108 9.12131C35.4267 9.00184 35.1616 8.90281 34.914 8.82608C34.6679 8.74935 34.4152 8.71165 34.1589 8.71165C33.7016 8.71165 33.4731 8.83272 33.4731 9.0767C33.4731 9.21317 33.5475 9.33264 33.6949 9.43167C33.842 9.53229 34.1643 9.6807 34.6612 9.8769C35.1028 10.0542 35.4284 10.2199 35.6345 10.3734C35.8406 10.5271 35.9932 10.7028 36.0918 10.9025C36.1888 11.1037 36.2373 11.3427 36.2373 11.6191L36.2367 11.6188ZM41.9698 13.2773H40.4215V10.0131C40.4215 9.206 40.1184 8.80325 39.5088 8.80325C39.0777 8.80325 38.764 8.94821 38.5719 9.23839C38.3798 9.52857 38.2828 9.9977 38.2828 10.6479V13.2773H36.7361V5.49628H38.2828V7.08312C38.2828 7.20605 38.2707 7.49596 38.248 7.95341L38.2116 8.40395H38.293C38.6377 7.85783 39.1849 7.5849 39.9365 7.5849C40.6015 7.5849 41.1073 7.76066 41.4519 8.11376C41.7966 8.46687 41.9698 8.97369 41.9698 9.63424V13.2773V13.2773ZM54.2781 7.15481C53.6858 7.15481 53.2286 7.37331 52.903 7.8119C52.5791 8.25049 52.4164 8.86139 52.4164 9.64459C52.4164 11.2742 53.0364 12.0898 54.2781 12.0898C54.7976 12.0898 55.4298 11.9618 56.1692 11.704V13.0044C55.5613 13.2553 54.8806 13.3798 54.1307 13.3798C53.0518 13.3798 52.2272 13.0572 51.656 12.4123C51.0844 11.7672 50.7985 10.8409 50.7985 9.6345C50.7985 8.8752 50.9389 8.20961 51.2194 7.638C51.4999 7.0664 51.9036 6.6278 52.4283 6.32249C52.9548 6.01691 53.5713 5.86505 54.2778 5.86505C54.9984 5.86505 55.7206 6.03735 56.4478 6.38037L55.9404 7.6396C55.6634 7.51004 55.3845 7.3972 55.104 7.30003C54.8235 7.20286 54.5481 7.15507 54.2778 7.15507L54.2781 7.15481ZM58.1511 10.4719C58.1511 11.0246 58.243 11.4428 58.4265 11.7261C58.6119 12.0093 58.9113 12.1508 59.327 12.1508C59.7393 12.1508 60.0355 12.0109 60.2173 11.7295C60.3976 11.4478 60.4876 11.0283 60.4876 10.4719C60.4876 9.91911 60.3976 9.50441 60.2141 9.22777C60.0322 8.95139 59.7326 8.81307 59.3171 8.81307C58.9048 8.81307 58.607 8.95139 58.4251 9.22618C58.2416 9.50096 58.1514 9.91566 58.1514 10.4719H58.1511ZM62.0704 10.4753C62.0704 11.3849 61.8279 12.0964 61.3413 12.6099C60.8546 13.1236 60.1759 13.3795 59.3063 13.3795C58.7625 13.3795 58.2826 13.2619 57.8655 13.0264C57.4497 12.7928 57.1312 12.4548 56.9078 12.0144C56.6844 11.5742 56.5737 11.0607 56.5737 10.4753C56.5737 9.5607 56.8143 8.85077 57.2975 8.34395C57.7825 7.83712 58.4613 7.58464 59.3376 7.58464C59.8813 7.58464 60.3612 7.70066 60.7784 7.93429C61.1942 8.16819 61.5127 8.50244 61.736 8.93944C61.9594 9.37618 62.0702 9.88805 62.0702 10.4751L62.0704 10.4753ZM64.4385 13.3795C63.7735 13.3795 63.2488 13.1255 62.8675 12.6152C62.4865 12.1049 62.2976 11.3987 62.2976 10.4942C62.2976 9.57795 62.49 8.86458 62.8778 8.35271C63.2658 7.84084 63.7991 7.5849 64.4797 7.5849C65.1933 7.5849 65.7389 7.85783 66.1148 8.40554H66.1649C66.0871 7.98765 66.0488 7.61544 66.0488 7.28782V5.49628H67.6006V13.2773H66.4145L66.1148 12.5554H66.0491C65.6958 13.1048 65.1607 13.3795 64.4385 13.3795ZM64.9823 12.1612C65.3789 12.1612 65.6681 12.0486 65.8534 11.8216C66.037 11.5946 66.1375 11.2107 66.1547 10.6665V10.5027C66.1547 9.90212 66.0612 9.47362 65.8723 9.21264C65.6853 8.95325 65.3805 8.82342 64.9561 8.82342C64.6115 8.82342 64.3431 8.96679 64.1507 9.25511C63.9602 9.54344 63.8651 9.96318 63.8651 10.5128C63.8651 11.0621 63.9621 11.4733 64.1542 11.7481C64.3463 12.0229 64.6236 12.1609 64.982 12.1609L64.9823 12.1612ZM70.859 8.66997C70.53 8.66997 70.2737 8.77245 70.0867 8.97714C69.9013 9.18184 69.7941 9.47202 69.7663 9.84743H71.9398C71.9328 9.47202 71.8342 9.18184 71.6402 8.97714C71.4478 8.77245 71.1864 8.66997 70.859 8.66997V8.66997ZM71.0773 13.3795C70.1627 13.3795 69.4494 13.1305 68.935 12.634C68.4206 12.1373 68.1644 11.4345 68.1644 10.525C68.1644 9.58831 68.4015 8.86458 68.876 8.35271C69.3522 7.84084 70.0088 7.5849 70.8488 7.5849C71.6507 7.5849 72.2739 7.81004 72.721 8.25899C73.1678 8.70953 73.3911 9.32892 73.3911 10.1222V10.8611H69.7318C69.7491 11.2944 69.879 11.6342 70.1215 11.8779C70.3656 12.1219 70.7086 12.243 71.1484 12.243C71.4895 12.243 71.8134 12.2071 72.1182 12.1373C72.4213 12.0675 72.7398 11.9565 73.0724 11.8028V12.9837C72.8005 13.117 72.5113 13.2176 72.2031 13.2824C71.8964 13.3471 71.5208 13.3795 71.0775 13.3795H71.0773ZM44.423 12.9494C44.7418 12.9494 45.0188 12.9221 45.2562 12.8693V13.2619C45.0121 13.3402 44.7313 13.3795 44.4128 13.3795C43.9261 13.3795 43.5678 13.2516 43.3355 12.9938C43.1035 12.7378 42.9873 12.3335 42.9873 11.7839V8.2704H42.1701V7.98022L42.9873 7.75508L43.2401 6.52984H43.4999V7.84031H45.1191V8.2704H43.4999V11.7207C43.4999 12.1389 43.5742 12.4477 43.7232 12.6489C43.8723 12.8486 44.1059 12.9492 44.4228 12.9492L44.423 12.9494ZM50.2998 10.5536C50.2998 11.4409 50.0815 12.1338 49.6452 12.6319C49.2087 13.1302 48.6078 13.3793 47.8388 13.3793C47.3556 13.3793 46.9296 13.2648 46.5607 13.0347C46.1918 12.8042 45.9094 12.475 45.7138 12.043C45.5162 11.613 45.4195 11.1165 45.4195 10.5534C45.4195 9.6661 45.6378 8.97502 46.0743 8.48014C46.5108 7.98527 47.1082 7.73783 47.8703 7.73783C48.6269 7.73783 49.223 7.98872 49.6541 8.4905C50.0853 8.99228 50.3 9.6799 50.3 10.5534L50.2998 10.5536ZM45.9458 10.5536C45.9458 11.301 46.1136 11.883 46.4464 12.3008C46.779 12.719 47.25 12.9287 47.8598 12.9287C48.4693 12.9287 48.9403 12.719 49.2731 12.3008C49.6056 11.883 49.7738 11.301 49.7738 10.5536C49.7738 9.80442 49.604 9.22272 49.268 8.80803C48.932 8.39519 48.4591 8.18863 47.8495 8.18863C47.2416 8.18863 46.7725 8.39519 46.4416 8.80617C46.1126 9.21742 45.9463 9.80097 45.9463 10.5534L45.9458 10.5536Z" fill="white"/>
<path fill-rule="evenodd" clip-rule="evenodd" d="M22.15 19.0027C21.7312 19.0027 21.4044 18.8752 21.1702 18.6211C20.9358 18.3671 20.8191 18.0105 20.8191 17.5523C20.8191 17.0993 20.932 16.7367 21.1583 16.4648C21.3844 16.1922 21.6895 16.0557 22.0729 16.0557C22.4122 16.0557 22.68 16.1714 22.8764 16.4043C23.0729 16.6361 23.1704 16.9515 23.1704 17.351V17.5586H21.0939C21.0974 17.9508 21.1899 18.2502 21.3718 18.4573C21.5528 18.6641 21.8123 18.7674 22.15 18.7674C22.3146 18.7674 22.4585 18.7557 22.5833 18.7334C22.708 18.7111 22.8657 18.662 23.0564 18.5872V18.8226C22.8937 18.8922 22.7433 18.9395 22.6059 18.9644C22.4685 18.9902 22.3162 19.0027 22.15 19.0027V19.0027ZM22.0729 16.2803C21.7951 16.2803 21.5728 16.3703 21.4044 16.5514C21.237 16.7324 21.1384 16.9934 21.1104 17.334H22.8918C22.8918 17.0032 22.8193 16.7457 22.6746 16.5593C22.5299 16.373 22.3289 16.2803 22.0729 16.2803V16.2803ZM25.7788 18.9493L25.7128 18.5001H25.691C25.5463 18.6838 25.397 18.8131 25.2439 18.8888C25.0912 18.9644 24.9101 19.0029 24.7021 19.0029C24.4189 19.0029 24.199 18.9318 24.0416 18.7889C23.8842 18.6453 23.8056 18.4483 23.8056 18.1953C23.8056 17.9181 23.923 17.7031 24.1575 17.5499C24.3919 17.3967 24.7301 17.3154 25.1744 17.3075L25.7228 17.2916V17.1036C25.7228 16.8333 25.6675 16.6302 25.5563 16.4922C25.445 16.3549 25.265 16.2861 25.0179 16.2861C24.7511 16.2861 24.4741 16.3591 24.1874 16.5054L24.0896 16.2808C24.4062 16.1345 24.7182 16.0615 25.0278 16.0615C25.3445 16.0615 25.5808 16.1428 25.7371 16.3039C25.8936 16.4661 25.9723 16.7184 25.9723 17.0616V18.9496H25.7788V18.9493ZM24.7177 18.7674C25.0254 18.7674 25.2687 18.6809 25.446 18.5072C25.6234 18.3341 25.7128 18.0936 25.7128 17.7851V17.5053L25.2089 17.5257C24.8036 17.5454 24.515 17.6078 24.3431 17.7129C24.1704 17.818 24.0844 17.9829 24.0844 18.2059C24.0844 18.3833 24.1397 18.5216 24.2499 18.6195C24.3604 18.7183 24.5169 18.7674 24.7177 18.7674V18.7674ZM28.7556 18.2112C28.7556 18.4653 28.657 18.6615 28.4605 18.7977C28.2652 18.9339 27.9863 19.0027 27.6255 19.0027C27.2401 19.0027 26.9343 18.944 26.7082 18.8272V18.5481C26.9987 18.6907 27.3045 18.7621 27.6255 18.7621C27.9106 18.7621 28.1267 18.7157 28.2741 18.6222C28.4215 18.5295 28.4958 18.4056 28.4958 18.2505C28.4958 18.1079 28.4371 17.9877 28.3193 17.8894C28.2018 17.7923 28.0081 17.697 27.7394 17.6024C27.4517 17.5 27.249 17.4118 27.1323 17.3378C27.0157 17.2629 26.9278 17.18 26.8691 17.0863C26.8093 16.9937 26.7793 16.8795 26.7793 16.7457C26.7793 16.5328 26.8699 16.365 27.0518 16.241C27.2326 16.1173 27.4861 16.0557 27.8109 16.0557C28.1221 16.0557 28.418 16.1136 28.6966 16.2285L28.5988 16.463C28.3156 16.348 28.0534 16.2909 27.8109 16.2909C27.5756 16.2909 27.3891 16.3294 27.2517 16.4059C27.1132 16.4826 27.0445 16.5885 27.0445 16.7242C27.0445 16.8723 27.0979 16.9908 27.2056 17.08C27.3123 17.1692 27.5215 17.2679 27.8327 17.3778C28.0924 17.4705 28.2813 17.5533 28.3999 17.6274C28.5185 17.7012 28.6071 17.7851 28.6667 17.8796C28.7254 17.9733 28.7553 18.0838 28.7553 18.2112H28.7556ZM29.0776 16.1093H29.3481L29.9579 17.7033C30.1433 18.1926 30.2611 18.5224 30.3099 18.6936H30.326C30.4004 18.469 30.5214 18.134 30.689 17.6871L31.2988 16.1093H31.5693L30.2783 19.4075C30.1743 19.6759 30.0865 19.8567 30.0159 19.9513C29.9453 20.045 29.8631 20.1153 29.768 20.1626C29.6739 20.2098 29.5589 20.2329 29.4252 20.2329C29.3239 20.2329 29.2115 20.2152 29.0886 20.1785V19.9558C29.1908 19.9834 29.3013 19.9977 29.4198 19.9977C29.5104 19.9977 29.589 19.9773 29.6586 19.9353C29.7273 19.8934 29.7898 19.8283 29.845 19.7402C29.9011 19.652 29.9655 19.5129 30.0385 19.322C30.1118 19.1314 30.159 19.0064 30.1805 18.9493L29.0776 16.1093V16.1093ZM31.8453 18.7462C31.8453 18.5749 31.9159 18.4895 32.0571 18.4895C32.2028 18.4895 32.2751 18.5749 32.2751 18.7462C32.2751 18.9174 32.2026 19.0029 32.0571 19.0029C31.9159 19.0029 31.8453 18.9174 31.8453 18.7462ZM35.04 18.2115C35.04 18.4656 34.9414 18.6618 34.7452 18.798C34.5499 18.9342 34.271 19.0029 33.9102 19.0029C33.5248 19.0029 33.219 18.9442 32.9926 18.8274V18.5484C33.2831 18.691 33.589 18.7624 33.9102 18.7624C34.1952 18.7624 34.4114 18.7159 34.5588 18.6225C34.7061 18.5298 34.7805 18.4058 34.7805 18.2508C34.7805 18.1082 34.7218 17.9879 34.6043 17.8897C34.4865 17.7925 34.2931 17.6972 34.0244 17.6027C33.7366 17.5002 33.534 17.4121 33.4173 17.338C33.3006 17.2631 33.2128 17.1803 33.154 17.0866C33.0942 16.9939 33.0646 16.8798 33.0646 16.746C33.0646 16.533 33.1551 16.3653 33.3367 16.2413C33.5178 16.1175 33.7711 16.056 34.0958 16.056C34.407 16.056 34.7029 16.1138 34.9815 16.2288L34.8837 16.4632C34.6005 16.3483 34.3381 16.2912 34.0955 16.2912C33.8603 16.2912 33.6738 16.3297 33.5364 16.4061C33.3979 16.4829 33.3292 16.5888 33.3292 16.7245C33.3292 16.8726 33.3825 16.991 33.4903 17.0802C33.597 17.1694 33.8061 17.2682 34.1174 17.3781C34.3771 17.4708 34.566 17.5536 34.6846 17.6277C34.8032 17.7015 34.8918 17.7854 34.9516 17.8799C35.0104 17.9736 35.0403 18.084 35.0403 18.2115H35.04ZM37.5951 18.9496L37.5288 18.5003H37.5072C37.3625 18.6841 37.2132 18.8134 37.0602 18.889C36.9071 18.9647 36.7263 19.0032 36.518 19.0032C36.2348 19.0032 36.0149 18.932 35.8576 18.7892C35.7002 18.6456 35.6215 18.4486 35.6215 18.1956C35.6215 17.9184 35.739 17.7033 35.9734 17.5501C36.2079 17.397 36.546 17.3157 36.9904 17.3078L37.5387 17.2918V17.1039C37.5387 16.8336 37.4835 16.6305 37.3722 16.4924C37.2609 16.3552 37.0809 16.2864 36.8338 16.2864C36.5671 16.2864 36.2901 16.3594 36.0033 16.5057L35.9055 16.2811C36.2221 16.1348 36.5342 16.0618 36.8438 16.0618C37.1604 16.0618 37.3967 16.143 37.553 16.3042C37.7096 16.4664 37.7883 16.7186 37.7883 17.0619V18.9498H37.5948L37.5951 18.9496ZM36.5336 18.7677C36.8414 18.7677 37.0847 18.6811 37.262 18.5075C37.4393 18.3344 37.5288 18.0939 37.5288 17.7854V17.5055L37.0249 17.526C36.6196 17.5456 36.3307 17.608 36.1591 17.7132C35.9864 17.8183 35.9004 17.9832 35.9004 18.2062C35.9004 18.3835 35.9556 18.5218 36.0661 18.6198C36.1766 18.7186 36.3329 18.7677 36.5339 18.7677H36.5336ZM39.8559 16.3342H39.1765V18.9496H38.9141V16.3342H38.3784V16.1826L38.9141 16.0862V15.8669C38.9141 15.5194 38.9793 15.2643 39.1094 15.1012C39.2388 14.939 39.4514 14.8578 39.7465 14.8578C39.9057 14.8578 40.065 14.8812 40.2234 14.9266L40.1628 15.1477C40.0216 15.1039 39.8804 15.0827 39.7411 15.0827C39.5365 15.0827 39.391 15.1424 39.3051 15.2619C39.2199 15.3821 39.1765 15.5757 39.1765 15.8449V16.1096H39.8559V16.3342V16.3342ZM41.6392 19.0032C41.2204 19.0032 40.8936 18.8757 40.6594 18.6217C40.425 18.3676 40.3083 18.011 40.3083 17.5528C40.3083 17.0999 40.4212 16.7372 40.6475 16.4653C40.8736 16.1927 41.1787 16.0562 41.5624 16.0562C41.9016 16.0562 42.1695 16.172 42.3656 16.4048C42.5621 16.6366 42.6596 16.952 42.6596 17.3516V17.5592H40.5831C40.5866 17.9513 40.6791 18.2508 40.861 18.4579C41.0418 18.6647 41.3015 18.768 41.6389 18.768C41.8035 18.768 41.9474 18.7563 42.0722 18.734C42.197 18.7117 42.3546 18.6626 42.5454 18.5877V18.8232C42.3826 18.8927 42.2325 18.94 42.0948 18.965C41.9574 18.9907 41.8054 19.0032 41.6389 19.0032H41.6392ZM41.5624 16.2808C41.2846 16.2808 41.062 16.3708 40.8938 16.5519C40.7265 16.733 40.6279 16.9939 40.5998 17.3346H42.3813C42.3813 17.0038 42.3088 16.7462 42.1641 16.5599C42.0194 16.3735 41.8184 16.2808 41.5624 16.2808V16.2808ZM43.465 18.7465C43.465 18.5752 43.5356 18.4897 43.6768 18.4897C43.8226 18.4897 43.8948 18.5752 43.8948 18.7465C43.8948 18.9177 43.8224 19.0032 43.6768 19.0032C43.5356 19.0032 43.465 18.9177 43.465 18.7465ZM46.0363 19.0032C45.6175 19.0032 45.2907 18.8757 45.0565 18.6217C44.8221 18.3676 44.7054 18.011 44.7054 17.5528C44.7054 17.0999 44.8186 16.7372 45.0446 16.4653C45.271 16.1927 45.5758 16.0562 45.9595 16.0562C46.2987 16.0562 46.5666 16.172 46.7627 16.4048C46.9592 16.6366 47.0567 16.952 47.0567 17.3516V17.5592H44.9802C44.9837 17.9513 45.0762 18.2508 45.2581 18.4579C45.4389 18.6647 45.6986 18.768 46.036 18.768C46.2006 18.768 46.3445 18.7563 46.4693 18.734C46.5941 18.7117 46.7517 18.6626 46.9425 18.5877V18.8232C46.7794 18.8927 46.6294 18.94 46.4919 18.965C46.3545 18.9907 46.2025 19.0032 46.036 19.0032H46.0363ZM45.9595 16.2808C45.6817 16.2808 45.4591 16.3708 45.2909 16.5519C45.1236 16.733 45.025 16.9939 44.9969 17.3346H46.7784C46.7784 17.0038 46.7059 16.7462 46.5612 16.5599C46.4165 16.3735 46.2155 16.2808 45.9595 16.2808V16.2808ZM48.4366 18.9498L47.3238 16.1099H47.5943L48.3388 18.0408C48.4375 18.2885 48.5124 18.5043 48.5614 18.6888H48.5776C48.6501 18.4518 48.7242 18.2341 48.8002 18.0355L49.5447 16.1101H49.8152L48.7015 18.9501H48.4364L48.4366 18.9498ZM51.5255 19.0032C51.1068 19.0032 50.7799 18.8757 50.5457 18.6217C50.3113 18.3676 50.1946 18.011 50.1946 17.5528C50.1946 17.0999 50.3078 16.7372 50.5339 16.4653C50.7602 16.1927 51.065 16.0562 51.4487 16.0562C51.788 16.0562 52.0558 16.172 52.252 16.4048C52.4484 16.6366 52.546 16.952 52.546 17.3516V17.5592H50.4695C50.473 17.9513 50.5654 18.2508 50.7473 18.4579C50.9281 18.6647 51.1879 18.768 51.5252 18.768C51.6899 18.768 51.8338 18.7563 51.9585 18.734C52.0833 18.7117 52.2409 18.6626 52.4317 18.5877V18.8232C52.2687 18.8927 52.1186 18.94 51.9812 18.965C51.8437 18.9907 51.6918 19.0032 51.5252 19.0032H51.5255ZM51.4487 16.2808C51.1709 16.2808 50.9483 16.3708 50.7802 16.5519C50.6128 16.733 50.5142 16.9939 50.4862 17.3346H52.2676C52.2676 17.0038 52.1951 16.7462 52.0504 16.5599C51.9057 16.3735 51.7047 16.2808 51.4487 16.2808V16.2808ZM54.5373 16.0562C54.6594 16.0562 54.7909 16.0687 54.9302 16.0929L54.8795 16.3416C54.7591 16.3122 54.6351 16.297 54.5058 16.297C54.2606 16.297 54.0587 16.3995 53.9022 16.6055C53.7448 16.8105 53.6661 17.0699 53.6661 17.3837V18.9498H53.4037V16.1099H53.6262L53.6524 16.6233H53.6715C53.7901 16.4138 53.9159 16.2676 54.0506 16.1829C54.1846 16.0982 54.3473 16.0562 54.5373 16.0562V16.0562ZM55.0972 16.1096H55.3678L55.9776 17.7036C56.163 18.1929 56.2807 18.5226 56.3295 18.6939H56.3457C56.4198 18.4693 56.541 18.1342 56.7086 17.6874L57.3184 16.1096H57.589L56.298 19.4078C56.194 19.6762 56.1061 19.857 56.0355 19.9515C55.9649 20.0452 55.8827 20.1156 55.7876 20.1629C55.6936 20.2101 55.5785 20.2332 55.4448 20.2332C55.3435 20.2332 55.2312 20.2154 55.1083 20.1788V19.956C55.2107 19.9836 55.3209 19.998 55.4395 19.998C55.53 19.998 55.6087 19.9775 55.6782 19.9356C55.7469 19.8936 55.8094 19.8286 55.8647 19.7405C55.9207 19.6523 55.9851 19.5132 56.0581 19.3223C56.1314 19.1317 56.1786 19.0066 56.2001 18.9496L55.0972 16.1096V16.1096ZM60.4369 18.9496L59.8064 17.05C59.7657 16.9217 59.7142 16.7327 59.6498 16.4831H59.6345L59.5784 16.6767L59.4598 17.0555L58.8183 18.9498H58.5585L57.7342 16.1099H58.0147L58.476 17.7554C58.5838 18.1637 58.6541 18.4632 58.6878 18.6549H58.704C58.808 18.2473 58.884 17.9765 58.932 17.8419L59.5253 16.1099H59.7633L60.3278 17.8366C60.4552 18.2465 60.5331 18.5168 60.5611 18.6495H60.5773C60.5908 18.5364 60.6614 18.2333 60.7891 17.7402L61.2289 16.1099H61.494L60.7123 18.9498H60.4364L60.4369 18.9496ZM64.1337 18.9496V17.1086C64.1337 16.8235 64.0722 16.6156 63.9499 16.4855C63.8287 16.3562 63.6395 16.2912 63.3827 16.2912C63.038 16.2912 62.7856 16.3769 62.6263 16.549C62.4662 16.7202 62.3857 16.9982 62.3857 17.3824V18.9496H62.1232V14.8846H62.3857V16.1781L62.373 16.5418H62.3911C62.4988 16.3706 62.6355 16.2476 62.8001 16.1709C62.9639 16.0942 63.1682 16.056 63.4126 16.056C64.0658 16.056 64.3934 16.4019 64.3934 17.0927V18.9496H64.1337V18.9496ZM66.5529 19.0029C66.1342 19.0029 65.8073 18.8755 65.5732 18.6214C65.3387 18.3673 65.222 18.0108 65.222 17.5525C65.222 17.0996 65.3352 16.7369 65.5613 16.4651C65.7876 16.1924 66.0924 16.056 66.4761 16.056C66.8154 16.056 67.0832 16.1717 67.2797 16.4045C67.4761 16.6363 67.5736 16.9517 67.5736 17.3513V17.5589H65.4972C65.5007 17.951 65.5931 18.2505 65.775 18.4576C65.9558 18.6644 66.2156 18.7677 66.5529 18.7677C66.7176 18.7677 66.8615 18.756 66.9862 18.7337C67.1112 18.7114 67.2686 18.6623 67.4594 18.5874V18.8229C67.2964 18.8925 67.1463 18.9397 67.0089 18.9647C66.8714 18.9904 66.7195 19.0029 66.5529 19.0029V19.0029ZM66.4761 16.2806C66.1983 16.2806 65.9757 16.3706 65.8076 16.5516C65.6403 16.7327 65.5416 16.9937 65.5136 17.3343H67.295C67.295 17.0035 67.2225 16.746 67.0778 16.5596C66.9331 16.3732 66.7321 16.2806 66.4761 16.2806V16.2806ZM69.5647 16.056C69.6868 16.056 69.8183 16.0684 69.9576 16.0926L69.9069 16.3414C69.7865 16.3119 69.6625 16.2968 69.5332 16.2968C69.288 16.2968 69.0861 16.3992 68.9296 16.6053C68.7722 16.8102 68.6935 17.0696 68.6935 17.3834V18.9496H68.4314V16.1096H68.6539L68.6801 16.623H68.6992C68.8178 16.4136 68.9436 16.2673 69.0783 16.1826C69.2123 16.0979 69.375 16.056 69.565 16.056H69.5647ZM71.663 19.0029C71.244 19.0029 70.9174 18.8755 70.683 18.6214C70.4486 18.3673 70.3319 18.0108 70.3319 17.5525C70.3319 17.0996 70.445 16.7369 70.6711 16.4651C70.8975 16.1924 71.2022 16.056 71.586 16.056C71.9252 16.056 72.1931 16.1717 72.3895 16.4045C72.5859 16.6363 72.6835 16.9517 72.6835 17.3513V17.5589H70.607C70.6105 17.951 70.7029 18.2505 70.8848 18.4576C71.0656 18.6644 71.3254 18.7677 71.663 18.7677C71.8277 18.7677 71.9716 18.756 72.0963 18.7337C72.2214 18.7114 72.3787 18.6623 72.5695 18.5874V18.8229C72.4065 18.8925 72.2564 18.9397 72.119 18.9647C71.9813 18.9904 71.8293 19.0029 71.663 19.0029V19.0029ZM71.586 16.2806C71.3081 16.2806 71.0856 16.3706 70.9174 16.5516C70.7501 16.7327 70.6515 16.9937 70.6234 17.3343H72.4049C72.4049 17.0035 72.3324 16.746 72.1877 16.5596C72.043 16.3732 71.842 16.2806 71.586 16.2806V16.2806ZM73.4886 18.7462C73.4886 18.5749 73.5592 18.4895 73.7004 18.4895C73.8462 18.4895 73.9184 18.5749 73.9184 18.7462C73.9184 18.9174 73.8459 19.0029 73.7004 19.0029C73.5592 19.0029 73.4886 18.9174 73.4886 18.7462Z" fill="white"/>
<path fill-rule="evenodd" clip-rule="evenodd" d="M10.7808 22.2706L11.0828 23.9626L11.7786 23.9758L11.445 22.3077L12.1157 22.3067L12.4781 23.9527L13.3824 23.9801L13.0383 22.2438C13.5183 22.2146 16.7739 21.8976 16.917 21.2537V18.7329C14.3358 19.3018 11.6482 20.2969 9.10176 18.8927C5.20532 16.7444 5.1975 8.42357 9.11819 6.01715C11.9961 4.2511 14.8022 5.88547 16.543 6.38406L17.685 3.73498C11.04 0.99271 5.00214 2.92018 3.28189 8.89774C2.4603 11.7523 2.72248 15.5672 3.98519 18.0609C5.23307 20.5252 7.22575 21.849 10.7802 22.2711L10.7808 22.2706ZM6.06841 2.32123C5.20666 2.96903 2.20781 4.40508 1.85347 9.9921C1.7508 11.6081 2.03347 13.5282 2.01245 13.7547C2.19488 11.2272 1.9599 10.2379 2.80413 7.82568C3.97522 4.48022 6.76901 2.33371 10.3399 1.81998C13.4266 1.37582 14.3129 2.02786 16.4072 2.29575C14.8093 1.37369 12.2502 1.04342 10.275 1.16448C9.50029 1.21201 8.71076 1.45891 8.0751 1.47352L7.77654 0.195968L6.838 0.189331L7.18264 1.846L6.70326 2.0276L6.29152 0.199951L5.61436 0.190924L6.06814 2.32123H6.06841ZM9.37149 18.0389C10.9535 19.1367 14.0057 18.8502 15.9135 18.1278V17.3996C15.2056 17.5592 13.7066 18.5338 9.37149 18.0389V18.0389Z" fill="white"/>
</svg>
